<svg width="24" height="24" viewBox="0 0 24 24" fill="none" xmlns="http://www.w3.org/2000/svg">
<path fill-rule="evenodd" clip-rule="evenodd" d="M20 19H4C2.895 19 2 18.105 2 17V7C2 5.895 2.895 5 4 5H20C21.105 5 22 5.895 22 7V17C22 18.105 21.105 19 20 19Z" stroke="#888888" stroke-width="1.5" stroke-linecap="round" stroke-linejoin="round"/>
<path d="M13.7678 10.2322C14.7441 11.2085 14.7441 12.7914 13.7678 13.7677C12.7915 14.744 11.2085 14.744 10.2322 13.7677C9.25592 12.7914 9.25592 11.2085 10.2322 10.2322C11.2085 9.25589 12.7915 9.25589 13.7678 10.2322" stroke="#888888" stroke-width="1.5" stroke-linecap="round" stroke-linejoin="round"/>
<path d="M6 9.5V14.5" stroke="#888888" stroke-width="1.5" stroke-linecap="round" stroke-linejoin="round"/>
<path d="M18 9.5V14.5" stroke="#888888" stroke-width="1.5" stroke-linecap="round" stroke-linejoin="round"/>
</svg>
