<svg width="24" height="24" viewBox="0 0 24 24" fill="none" xmlns="http://www.w3.org/2000/svg">
<path d="M11.9999 2C14.761 2 17.2612 3.11948 19.0709 4.92912C20.8805 6.73866 22 9.23904 22 11.9999C22 14.7613 20.8806 17.2612 19.0709 19.0709C17.2612 20.8805 14.761 22 11.9999 22C9.2387 22 6.73866 20.8806 4.92912 19.0709C3.11925 17.2612 2 14.7613 2 11.9999C2 9.23904 3.11948 6.73866 4.92912 4.92912C6.73866 3.11925 9.2387 2 11.9999 2ZM17.891 6.10898C16.3835 4.60158 14.3006 3.66909 11.9999 3.66909C9.69915 3.66909 7.61627 4.60158 6.10898 6.10898C4.60158 7.61638 3.66909 9.69938 3.66909 11.9999C3.66909 14.3009 4.60158 16.3837 6.10898 17.891C7.61627 19.3984 9.69915 20.3308 11.9999 20.3308C14.3006 20.3308 16.3835 19.3984 17.891 17.891C19.3984 16.3837 20.3308 14.3009 20.3308 11.9999C20.3308 9.69938 19.3984 7.61638 17.891 6.10898Z" fill="#FF5FD5"/>
</svg>
