<svg width="25" height="24" viewBox="0 0 25 24" fill="none" xmlns="http://www.w3.org/2000/svg">
<path fill-rule="evenodd" clip-rule="evenodd" d="M10.2828 12.997H13.0378C15.4978 12.997 17.5918 11.207 17.9758 8.777V8.777C18.4538 5.744 16.1098 3 13.0378 3H7.70778C7.21578 3 6.79678 3.358 6.71978 3.844L4.51178 17.844C4.41678 18.451 4.88578 19 5.49978 19H8.34578L9.13778 13.976C9.22678 13.412 9.71278 12.997 10.2828 12.997Z" stroke="#888888" stroke-width="1.5" stroke-linecap="round" stroke-linejoin="round"/>
<path d="M17.9667 7.163C19.7037 8.153 20.7757 10.144 20.4377 12.285C20.0547 14.715 17.9597 16.505 15.4997 16.505H15.5207H12.8917L12.3157 20.155C12.2397 20.642 11.8197 21 11.3277 20.999L8.61575 20.997C8.30875 20.997 8.07475 20.722 8.12175 20.419L8.34575 19" stroke="#888888" stroke-width="1.5" stroke-linecap="round" stroke-linejoin="round"/>
</svg>
