<svg width="24" height="24" viewBox="0 0 24 24" fill="none" xmlns="http://www.w3.org/2000/svg">
<path d="M10.1341 11.8649C10.1886 11.9195 10.2049 12.0015 10.1754 12.0728C10.1459 12.144 10.0764 12.1905 9.99923 12.1905C9.9221 12.1905 9.85257 12.144 9.82306 12.0728C9.79354 12.0015 9.80986 11.9195 9.8644 11.8649C9.93894 11.7907 10.0595 11.7907 10.1341 11.8649" stroke="#848783" stroke-width="1.5" stroke-linecap="round" stroke-linejoin="round"/>
<path d="M10.9998 17.0021H3.99693C3.46623 17.0022 2.95722 16.7915 2.58196 16.4162C2.2067 16.041 1.99595 15.5319 1.99609 15.0012V8.99875C1.99595 8.46805 2.2067 7.95905 2.58196 7.58379C2.95722 7.20852 3.46623 6.99777 3.99693 6.99792H10.9998" stroke="#848783" stroke-width="1.5" stroke-linecap="round" stroke-linejoin="round"/>
<path d="M6.1326 11.8649C6.18714 11.9195 6.20346 12.0015 6.17394 12.0728C6.14443 12.144 6.07489 12.1905 5.99777 12.1905C5.92064 12.1905 5.85111 12.144 5.82159 12.0728C5.79208 12.0015 5.80839 11.9195 5.86293 11.8649C5.93747 11.7907 6.05806 11.7907 6.1326 11.8649" stroke="#848783" stroke-width="1.5" stroke-linecap="round" stroke-linejoin="round"/>
<rect x="14.001" y="10.4994" width="8.00333" height="6.50271" rx="1.65" stroke="#85868A" stroke-width="1.5" stroke-linecap="round" stroke-linejoin="round"/>
<path d="M15.5308 10.4994V8.46912C15.5308 7.10408 16.6373 5.9975 18.0024 5.9975V5.9975C18.6579 5.9975 19.2866 6.2579 19.7501 6.72142C20.2136 7.18494 20.474 7.8136 20.474 8.46912V8.46912V10.5163" stroke="#848783" stroke-width="1.5" stroke-linecap="round" stroke-linejoin="round"/>
</svg>
